<?xml version="1.0" encoding="UTF-8"?><svg id="Livello_1" xmlns="http://www.w3.org/2000/svg" viewBox="0 0 3094.9 1467.15"><path d="m1592.78,1237.81c5.07.65,5.34,4.43,5.03,8.11-.86,10.25-2.25,20.45-2.95,30.71-.81,11.9-1.5,23.83-1.44,35.74.02,4.47,2,9.05,3.66,13.36,1.22,3.16,4.03,4.63,7.31,2.61,7.01-4.32,13.84-8.94,20.85-13.26,3.66-2.26,4.66-5.45,4.05-9.39-3.01-19.28-.79-38.58.47-57.78,1-15.18,4.23-30.22,6.5-45.32.15-.98.2-2.21.8-2.84,3.07-3.18,3.46-10.32,9.15-9.12,3.31.7,6.48,5.17,8.41,8.67,3.85,6.96,7.18,14.27,10.03,21.7,6.84,17.88,9.37,36.21,1.63,54.38-4.69,11-11.52,20.88-20.5,29.05-4.98,4.54-5.71,7.54-3.19,12.9,2.14,4.56,4.8,4.35,11.67,4.59,13.64.47,23.73-7.47,34.94-12.77,19.22-9.09,37.99-19.07,58.6-25.1,7.76-2.27,12.43.3,13.77,7.86,1.16,6.51,1.37,13.19,1.77,19.81.24,3.93.04,7.9.04,12.92,2.77-1.05,4.46-1.64,6.11-2.33,8.25-3.44,16.34-7.29,24.77-10.19,4.35-1.5,6.42-3.33,7.29-8.03,1.25-6.79,2.73-13.9,5.92-19.91,6.94-13.09,13.33-14.76,25.6-7.41,7.21,4.32,10.97,11.44,14.4,18.36,4.2,8.47,1.54,17.12-3.45,24.6-3.49,5.23-9.21,4.51-14.57,3.15-6.34-1.61-12.64-3.39-20.69-5.56,0,5.57-.48,9.49.09,13.26,1.49,9.71.94,19.69,7.19,28.59,4.41,6.29,10.02,9.74,16.7,11.64,10.78,3.08,21.65,2.22,32.5-.72,27.45-7.45,53.49-18.34,78.77-31.23,6.05-3.08,11.91-6.19,11.28-14.64-.21-2.88,1.89-5.73,4.95-4.66,2.37.83,4.24,3.57,5.88,5.8.53.72-.11,2.61-.64,3.77-4.71,10.26.31,17.92,6.77,25.07,4.28,4.74,9.52,6.66,16.16,5.64,15.77-2.42,30.28-7.74,42.75-17.8,2.56-2.06,4.46-3.93,8.28-1.16v12.25c14.14-3.33,32.51-24.51,35.61-42.05,2.09,3.02,4.37,4.84,4.44,6.73.13,3.86.25,8.52-1.7,11.51-8.8,13.49-20.16,24.73-33.63,33.59-4.96,3.26-10.4,2.01-13.36-2.19-1.08-1.53-1.29-3.68-2.16-6.33-3.21,1.44-6.06,2.93-9.06,4.02-8.4,3.05-16.84,5.99-25.3,8.87-17.84,6.07-29.79-2.47-37.49-17.37-1.03-2-2.14-3.96-3.2-5.9-16.42,6.92-32.06,14.27-48.25,20.13-16.54,5.99-33.44,11.16-50.49,15.47-12.6,3.18-25.41,1.28-36.6-5.68-9.74-6.07-15.3-15.56-16.93-26.94-1.27-8.84-1.89-17.77-2.79-26.54-14.63-.83-33.24,11.27-39.11,25.33-2.69,6.43-4.7,13.15-7.04,19.73-1.53,4.29-4,6.87-9.02,4.86-2.32-4.38-1.13-8.36.83-12.4,9.94-20.47,10.67-42.31,9.34-64.42-.03-.57-.61-1.1-1.39-2.42-12.01,3.03-23.59,7.86-35.01,13.05-16.34,7.43-32.42,15.48-48.99,22.36-6.57,2.72-14.11,3.32-21.29,4.3-6.24.85-10.98-1.61-13.26-7.99-.6-1.69-2.09-3.06-3.19-4.61-6.09,4.99-11.46,9.86-17.29,14.1-15.22,11.05-25.01,5.81-28.95-11.04-1.56-6.68-2.23-13.56-3.42-21.04-1.31.57-2.68.78-3.45,1.57-18.06,18.81-40.58,31.02-63.42,42.66-13.29,6.78-26.74,13.35-40.52,19.04-6.95,2.87-14.74,4.52-22.26,5.05-18.03,1.29-27.16-5.83-29.43-25.97-1.21-10.75.68-21.85,1.27-32.79.18-3.26.71-6.5,1.2-10.75-2.72,1.14-4.62,1.63-6.19,2.63-8.12,5.19-16.19,10.46-24.23,15.78-16.63,11.01-32.99,22.45-49.9,33.02-23.13,14.47-46.66,28.3-70.01,42.41-20.18,12.2-40.08,24.89-60.6,36.49-27.56,15.6-56.35,28.71-87.25,36.21-10.68,2.59-21.91,1.95-32.5-1.93-3.37-1.24-6.64-3.2-9.44-5.47-7.14-5.8-7.81-9.08-3.52-17.12,4.52-8.47,9.32-16.81,14.16-25.11,2.36-4.04,5.57-6.25,11.27-3.16-1.42,1.8-2.16,3.27-3.34,4.13-9.73,7.16-12.53,18.48-17.14,28.65-1.92,4.25,1.01,6.96,4.47,8.78,8.41,4.42,17.34,6.92,26.91,5.75,18.02-2.2,34.93-8.23,51.5-15.37,8.85-3.82,17.82-7.36,26.61-11.29,3.62-1.62,6.96-3.87,10.36-5.95,17.29-10.55,34.57-21.13,51.84-31.72,21.81-13.37,43.67-26.65,65.41-40.15,20.05-12.45,40.12-24.89,59.89-37.79,13.92-9.08,27.54-18.66,40.85-28.62,3.09-2.31,5.43-6.85,6.27-10.75,7.21-33.58,21.58-63.46,44.63-89.05,1.56-1.73,3.59-3.22,4.61-5.23,2.36-4.66,5.82-6.46,10.25-4.86,1.14-3.87,1.2-7.76,3.16-9.97,4.14-4.66,8.67-9.92,14.17-12.2,6.24-2.58,13.28.23,18.47,4.77,4.63,4.05,3.62,9.92,2.2,15.02-3.77,13.52-9.24,26.28-17.17,38.02-17.75,26.28-40.64,47.41-65.68,66.41-4.16,3.16-7.16,6.62-8.65,11.71-4.54,15.53-6.34,31.33-4.91,47.41.37,4.2,1.91,8.38,3.37,12.39,1.78,4.86,6.05,7.71,10.75,7.82,6.85.17,14.07-.04,20.53-2.04,9.8-3.03,19.08-7.74,28.59-11.73.92-.39,1.86-1.11,2.77-1.09,13.98.43,20.77-12.1,31.49-17.62,11.16-5.75,21.42-13.34,31.67-20.71,5.9-4.24,11.25-9.36,16.36-14.56,8.34-8.5,8.83-20.09,9.67-30.79.69-8.8,2.59-16.66,6.95-24.38Zm-71.81-71.12c-5.17-2.41-8.28.22-11.58,2.54-11.7,8.19-22.49,17.2-31.68,28.36-17.64,21.41-30.36,45.15-37.14,72.05-.38,1.49-.22,3.11-.38,5.65,2.28-1.13,3.92-1.55,5.03-2.56,12.77-11.62,25.89-22.9,38.06-35.12,11.77-11.82,21.65-25.36,28.99-40.38,4.58-9.38,10.35-18.73,8.7-30.53Zm118.76,133.16c31.91-26.04,32.62-63.14,9.4-97.92-1.08,1.36-2.61,2.44-2.9,3.78-5.79,27.39-8.29,55.1-7.61,83.08.08,3.15.62,6.28,1.11,11.05Zm171.01,9.78c7.53,2.09,14.21,3.88,20.84,5.82,3.56,1.04,5.9-.31,7.1-3.52,4.8-12.79,1.07-31.63-20.03-30.51-5.85,8.05-8.69,17.21-7.92,28.2Z"/><path d="m2302.95,1158.48c-4.25,2.35-7.08,6.11-12.64,3.54-4.21-1.95-6.12,2.67-8.15,5.64-7.47,10.94-10.66,23.59-14.03,36.09-7.21,26.8-10.32,54.2-10.13,81.89.1,13.94.91,28,2.97,41.77,1.09,7.27,4.76,14.52,8.7,20.89,4.56,7.39,12.54,10.37,20.95,8.54,10.02-2.18,19.86-5.37,29.55-8.8,9.66-3.42,18.36-9.32,28.97-10.45,3.42-.36,7.59-2.11,9.74-4.65,8.86-10.43,21.35-15.59,32.06-23.3,3.76-2.71,7.54-5.4,12.11-8.68-3.02-8.17-7.16-15.39-13.23-21.62-3.69-3.79-7.46-7.54-6-13.86,1.24-5.37,4.03-6.87,8.09-3.04,6.28,5.92,12.07,12.36,18.12,18.53,1.56,1.59,3.3,3,5.27,4.78,6.13-4.84,7.56-11.08,8.25-17.77.62-5.95,1.17-11.95,2.5-17.76.48-2.08,3.03-4.99,4.87-5.18,3.91-.41,4.46,3.21,4.44,6.33-.03,3.99.35,8.15-.6,11.94-3.93,15.54-2.13,31.14-.82,46.68,1.39,16.51,13.46,26.27,30.08,24.06,11.5-1.53,22.82-4.07,33.34-9.67,11.74-6.25,23.9-11.71,35.84-17.58,1.74-.86,3.27-2.14,4.97-3.27-1.32-10.17-2.94-19.99-3.79-29.86-1.39-16.11,1.37-31.86,5.58-47.34,4.9-18.04,14.61-21.17,30.85-13.92,20.88,9.32,30.43,38.65,20.24,59.04-6.89,13.8-18.58,22.3-31.46,29.64-2.82,1.61-5.65,3.18-8.55,4.81,1.12,7.67,5.54,12.42,10.9,15.54,9.36,5.46,19.59,8.49,30.61,5.39,18.19-5.12,36.41-10.13,54.46-15.69,6.3-1.94,12.21-5.21,18.18-8.13,6.51-3.18,7.33-5.57,5.55-12.76-1.2-4.83-2.41-9.7-2.89-14.62-.18-1.88,1.44-5.44,2.61-5.61,2.17-.31,5.77.64,6.73,2.27,3.35,5.68,6.49,11.66,8.5,17.92,7.53,23.44,27.78,33.77,51.67,27.23,13.74-3.77,25.72-10.61,37.72-17.61,8.01-4.67,15.55-10.16,23.88-15.66-4.18-9.83-5.8-20.1-4.54-30.7.47-3.94.86-7.99,2.12-11.71,3.16-9.27,7.24-11.61,17.27-10.77,1.27.11,2.55.15,4.22.24v-5.87c17.87,9.32,22.39,28.34,10.37,43.33-4.33,5.4-9.33,10.25-13.96,15.28,4.47,9.68,13.33,11.43,21.83,11.96,10.21.63,20.55-.28,30.8-.99,10.26-.71,20.5-1.88,30.73-3.05,24.42-2.79,48.83-5.68,73.24-8.55,21.13-2.49,42.26-4.94,63.38-7.52,16.11-1.97,32.19-4.21,48.3-6.11,3.92-.46,7.93-.07,12.15,1.26-10.25,1.81-20.47,3.8-30.75,5.37-12.77,1.96-25.6,3.5-38.38,5.35-18.37,2.67-36.73,5.45-55.08,8.21-12.14,1.82-24.26,3.81-36.42,5.49-9.86,1.36-19.77,2.36-29.65,3.54-6.59.78-13.16,1.83-19.77,2.35-15.55,1.21-31.1,2.4-46.67,3.15-11.56.56-22.63-1.28-31.36-9.94-3.94-3.9-7.42-1.31-10.78.68-9.14,5.42-17.9,11.55-27.31,16.43-9.99,5.18-20.36,9.76-30.91,13.69-14,5.22-27.52,2.49-40.25-4.68-3.97-2.24-7.67-4.96-12.05-7.82,0,6.83-.03,12.81.02,18.79.02,2.33.31,4.65.29,6.98-.02,3.59-2.11,6.09-5.48,5.58-2-.31-4.85-2.77-5.22-4.67-1.48-7.47-2.08-15.1-3.1-22.67-.25-1.89-.85-3.74-1.56-6.76-3.24,1.13-5.94,1.98-8.57,3.01-21.66,8.54-43.5,16.7-66.45,20.94-8.07,1.49-16.69,1.69-24.83.65-11.28-1.43-20.65-7.12-26.72-17.3-.98-1.64-2.31-3.08-3.65-4.85-15.05,7.06-29.63,14.2-44.47,20.76-12.88,5.7-26.42,9.24-40.66,8.49-5.57-.29-11.09-1.7-17.6-2.76,0,2.99.17,5.85-.04,8.67-.27,3.75-3.22,5.45-6.21,4.99-1.95-.3-4.51-2.7-5.12-4.68-2.33-7.56-3.04-15.74-6.15-22.9-2.79-6.41-7.95-11.8-11.98-17.5-15.29,9.21-29.31,18.03-43.69,26.21-21.11,12.01-42.29,23.87-66.35,29.42-21.98,5.07-37.49-2.93-44.22-24.38-2.45-7.81-3.99-16.17-4.29-24.34-.62-16.95-.77-33.98.05-50.92,1.11-22.95,4.71-45.59,12.2-67.45,3.76-10.99,7.49-22,11.45-32.92.88-2.42,2.39-4.78,4.15-6.66,8.44-9.01,16.51-8.52,25.67,1.98Zm250.9,61.88c-11.58,25.14-12.01,50.31-5.26,77.31,12.56-5.62,23.07-12.04,31.02-21.34,15.16-17.74,9.74-45.59-8.34-55.96h-17.42Zm263.53,13.37c-5.86,1.57-8.75,4.33-10.11,10.06-2.14,8.99-1.35,17.66-.03,26.45.26,1.75,1.77,3.32,2.7,4.96,20.6-11.51,22.33-31.74,7.44-41.47Z"/><path d="m1213.78,171.81q3.67-7.65,11.45-3.36c4.53-2.93,9.15-5.92,14.16-9.17,4.69,7.24,1.18,12.93-1.19,18.39-1.28,2.94-4.09,5.19-6.06,7.87-2.9,3.95-6.1,7.76-8.41,12.05-4.25,7.88-.91,14.15,8.02,15.36,3.53.48,7.18.08,11.91.08.26-4.42.85-8.28.64-12.09-.67-12.41,1.42-24.38,5.35-36.05.93-2.77,2.63-5.37,4.34-7.79,6.65-9.42,15.56-9.81,21.3.17,5.82,10.12,14.13,19.89,11,33.16-.07.31.03.66.05.99,1.02,15.69-.88,18.86-15.33,24.39-6.12,2.34-12.42,4.2-19.79,6.67,1.68,4.07,3.21,7.8,5.02,12.17-6.91-1.45-7.32-7.74-11.23-11.92-5.31-.32-11.51.3-17.06-1.31-5.54-1.61-10.42-5.45-14.97-7.97-10.85,3.36-21.46,7.09-32.32,9.83-5.38,1.36-11.22,1.23-16.85,1.17-12.44-.14-16.52-3.47-19.81-15.38-.44-1.58-.82-3.18-1.48-5.72-6.39,2.5-12.32,5.19-18.49,7.17-9.45,3.02-19.04,5.62-28.6,8.28-10.62,2.95-18.98-.27-25.01-9.51-.53-.82-1.14-1.59-1.42-1.99-9.4,3.16-18,6.6-26.9,8.86-6.37,1.62-13.15,2.23-19.75,2.27-14.22.08-19.22-4.27-23.05-19.61-3.63,1.41-7.36,2.43-10.68,4.22-11.37,6.13-23.79,8.33-36.34,9.93-9.06,1.16-15.07-3.63-19.16-12.19-9.89,3.95-19.36,7.73-28.83,11.52-16.11,6.45-32.54,11.68-49.94,13.22-10.87.96-20.67-2-27.47-10.63-7.22-9.15-8.9-19.64-3.46-31.57,3.45,2.1,6.42,3.92,8.54,5.21-1.12,4.08-3.09,7.53-2.75,10.73,1.05,10.07,10.23,17.99,20.5,18.27,5.65.15,11.31-.19,16.96-.46,1.22-.06,2.4-.79,4.9-1.67-2.93-1.62-4.76-2.69-6.63-3.66-14.81-7.7-22.85-19.37-23.21-36.55-.28-13.27,1.95-25.77,7.22-37.86,7.75-17.77,22.11-24.07,40.58-17.8,17.91,6.08,32.53,16.4,42.81,33.43,1.63-.96,2.91-2.27,4.29-2.39,1.71-.15,4.11.15,5.09,1.25.87.98.36,3.34.16,5.05-.24,2.11-1.6,4.42-1.07,6.23,2.82,9.68,2.99,19.32,1.43,29.25-1.01,6.44,3.1,11.27,9.58,11.4,17.49.36,33.71-4.43,47.5-15.16,3.3-2.57,4.25-8.6,5.49-13.26,1.96-7.33,4.22-9.28,13.05-9.06.93,7.55-3.09,13.86-5.04,20.69-1.33,4.67-2.06,9.65-2.15,14.5-.09,4.99,3.37,8.03,8.09,8.71,16.2,2.32,31.05-2.1,44.74-10.38,2.39-1.45,3.54-5.36,4.69-8.35,3.18-8.3,5.99-16.74,9.16-25.05.36-.95,2.24-2.15,3.06-1.93,1.34.36,3.25,1.7,3.38,2.79.28,2.53-.13,5.22-.69,7.75-1.42,6.48-3.53,12.84-4.54,19.37-1.66,10.68,3.57,16.5,14.31,16.38,13.7-.16,25.78-6.05,37.74-11.73,6.54-3.11,12.4-7.66,18.6-11.5,1.67-1.04,3.4-2.22,5.26-2.67,3.05-.75,5.16,1.97,3.85,4.85-.67,1.48-2.05,2.63-2.84,4.07-6.59,11.97-1.08,23.14,12.36,22.75,12.79-.37,25.94-1.51,37.17-9.36-4.07-13.75-2-25.83,9.04-35.59,0,6.77,0,13.54,0,21.55,2.91-6.25,5.39-11.58,8.43-18.13-2.92-1.08-5.79-2.14-8.66-3.2Zm-280.55,4.18c-1.75-6.65-1.83-14.53-5.62-19.67-6.4-8.65-14.47-16.46-23.09-22.98-10.8-8.16-23.62-10.04-36.69-5.48-2.87,1-5.52,3.5-7.48,5.94-1.81,2.25-2.79,5.28-3.75,8.09-4.49,13.21-8.96,26.47-4.99,40.71,3.32,11.9,9.8,20.45,22.63,23.76,18.12,4.68,33.06-2.44,47.79-11.27,7.14-4.28,11.49-10.02,11.2-19.12Zm317.38,38.33c8.76-3.06,16.22-5.43,23.45-8.37,1.8-.73,3.98-3.34,4.01-5.11.15-10.64,5.62-22.32-5.25-31.13-.47-.38-.6-1.17-.95-1.73q-7.27-11.83-16.74-3.01c-1.63,8.17-2.83,14.89-4.33,21.54-1.92,8.49-1.8,16.92-.19,27.82Zm-15.53-46.09c-8.3,5.12-9.05,6.99-4.64,11.54,2.26-3.49,5.53-6.4,4.64-11.54Z"/><path d="m1470.67,811.52c10.65,3.8,21.31,7.56,31.93,11.41,4.23,1.53,7.16-.03,9.21-3.63,16.31-28.63,11.11-61.22-23.98-75.71-17.24-7.12-33.1-4.79-47.25,8.01-7.45,6.73-10.87,14.87-10.88,24.71,0,1.9-.19,3.8-.42,8.01-2.59-2.96-4.43-4.21-5.05-5.9-4.14-11.45,1.02-20.61,8.11-28.81,11.56-13.38,26.73-18.7,43.92-16.28,20.43,2.88,36.95,12.65,47.33,31.22,10,17.9,5.76,35.36-1.77,52.68-.92,2.11-2.08,4.13-3.08,6.2-.13.27-.02.66-.02,1.77,17.13,3.99,33.25.31,50.2-6.48-1.21-3-2.16-5.64-3.32-8.2-5.69-12.6-6.44-25.54-3.46-38.97,1.98-8.95,8.32-13.17,15.95-16.38,12-5.05,26.36-2.02,33.67,7.05,2.17,2.69,2.93,5,1.92,8.94-1.65,6.45-4.94,13-2.28,20.16.41,1.09-.87,3.22-1.92,4.37-5.81,6.34-11.71,12.6-17.74,18.72-1.77,1.8-4.07,3.07-7.22,5.39,11.88,8.21,23.82,11.8,37.11,11.41,15.14-.45,29.51-4.76,43.87-8.93,9.23-2.68,18.2-6.25,27.43-8.92,6.45-1.86,9.29-5.22,8.79-12.2-.26-3.72,1.1-7.82,2.72-11.3.92-1.98,4.38-4.65,5.73-4.19,2.78.96,6.61,3.54,6.97,5.92.85,5.64,2.18,11.56-2.27,17.12-4.42,5.52-.42,14.08,6.69,14.68,12.28,1.03,24.03-1.84,34.16-8.7,3.31-2.24,4.71-7.57,6.5-11.7,1.7-3.91,2.49-8.23,4.27-12.09.64-1.39,2.99-1.99,4.55-2.95,1.03,1.88,3.06,3.86,2.89,5.63-.47,4.93-2.08,9.74-2.79,14.66-.6,4.13-.57,8.34-.93,14.35,11.33-2.58,22.02-1.92,30.32-8.35,4.12-3.2,6.09-9.2,8.95-13.99.68-1.13.71-2.91,1.63-3.55,1.46-1.03,3.68-2.19,5.07-1.74,1.24.41,2.74,3.11,2.47,4.47-.83,4.18-2,8.43-3.87,12.24-3.6,7.34-2.65,12.05,4.95,14.7,5.54,1.93,11.81,3.48,17.51,2.87,15.82-1.68,31.51-4.59,47.25-6.98,2.89-.44,5.81-.71,8.71-1.06.22.66.43,1.33.65,1.99-3.46,1.4-6.81,3.38-10.41,4.09-15.3,3.02-30.62,6.02-46.04,8.26-6.15.9-12.61.1-18.89-.43-7.72-.65-12.04-6.41-16.48-12.44-7.33,2.15-14.71,4-21.86,6.5-7.43,2.6-13.67,2.18-18.41-4.85-.52-.78-1.53-1.23-2.24-1.78-9.61,2.9-19.22,5.37-28.53,8.72-11.63,4.19-20.03.08-27.02-8.99-.79-1.03-1.73-1.95-2.94-3.31-11.43,3.34-22.86,6.6-34.25,10.03-14.97,4.52-30.08,8.44-45.77,9.21-14.98.74-29.17-2.24-41.62-10.98-3.45-2.42-6.43-2.75-10.17-1.36-4.96,1.85-10,3.51-15.08,5-11.04,3.23-22.36,3.21-33.68,2.36-5.72-.43-10.29.47-13.61,5.91-1.85,3.03-5.02,5.28-7.74,7.73-6.82,6.13-14.48,7.82-22.91,3.7-8.17-3.99-12.64-10.29-12.55-19.78.03-3.87-1.56-7.72-1.98-11.62-.72-6.73,2.09-8.99,9.03-7.55-.3,1.28-.33,2.7-1,3.7-4.33,6.51-3.44,12.23,1.83,17.88,2.63,2.82,4.91,6.18,6.51,9.68,1.61,3.49,4.03,3.79,7.18,3.66,9.53-.4,12.74-7.7,17.26-15.19-7.69-2.87-14.62-5.75-21.76-8.02-6.02-1.91-9.52-5.47-10.08-11.79Zm108.46,2.64c15.58-6.76,24.92-18.06,28.86-33.59,2.55-10.08-3.27-17.44-13.5-18.03-4.26-.25-8.57-.11-12.83.22-5.89.46-10.45,3.73-11.52,9.35-2.87,15-1.84,29.42,8.99,42.04Z"/><path d="m839.14,826.86c-12.26,4.67-23.27,9.33-34.59,13.04-10.39,3.4-21.05,6.09-31.72,8.48-9.04,2.02-17.85-3.76-18.62-12.02-.23-2.5.93-6.41,2.74-7.47,2.05-1.2,5.94-.72,8.33.46,4.26,2.1.23,4.97-.2,7.53-.04.27.2.59.88,2.37,2.56,0,5.75.33,8.84-.06,14.22-1.8,28.1-5,41.22-10.98,1.51-.69,2.95-1.69,4.53-2.07,11.73-2.84,18.39-8.83,19.27-22.21.7-10.77,9.3-17.17,19.75-20.09,5.31-1.48,9.13.17,11.67,4.89,3.88,7.23,3.05,13.82-2.86,19.94-2.29,2.37-4.98,4.4-7.68,6.31-3.48,2.46-7.15,4.65-10.59,6.86,3.9,15.36,11.09,21.06,25.67,22.16,16.27,1.23,31.67-2.52,47.03-6.91,6.38-1.83,12.65-4.03,19.07-5.72,5.39-1.41,7.47-4.06,6.74-9.99-1.18-9.66,2.25-18.24,8.56-26.16,1.97.49,3.84,1.38,5.68,1.34,10.2-.24,11.65.56,15.16,9.23,3.41,8.43,2.7,13.17-3.79,18.79-3.69,3.2-8.08,5.6-12.14,8.34,2.32,10.68,9.16,17.49,19.58,17.75,7.19.18,14.77-.27,21.55-2.42,14.2-4.52,27.99-10.33,41.94-15.64,7.47-2.84,11.02-8.08,9.67-16.2-.05-.33-.09-.66-.1-.99-.09-6.75,1.82-9.94,5.76-9.63,2.68.21,7.04,6.06,7.08,9.86.02,1.63-.41,3.31-.92,4.88-1.8,5.54-.29,10.43,2.57,15.2,5.47,9.1,9.94,10.97,20.75,8.5,1.62-.37,3.25-.71,4.89-.97,11.4-1.82,18.8-6.79,20.85-19.62,2.33-14.58,14.22-22.94,25.52-30.57,7.77-5.24,18.9,1.25,20.43,10.87,1.37,8.63-1.32,15.99-8.17,21.19-5.25,3.99-11.18,7.11-16.95,10.35-3.72,2.09-7.71,3.7-11.84,5.66.16,7.89,4.93,11.93,11.06,13.99,14.05,4.72,28.39,6.49,43.18,3.08,6.43-1.48,13.17-1.59,19.7-2.69,15.96-2.68,31.87-5.61,47.82-8.34,2.49-.43,5.05-.39,7.98,1.21-7.73,2.28-15.36,5.01-23.21,6.75-17.46,3.86-34.93,7.88-52.59,10.52-10.74,1.61-22.03,2.11-32.76.7-13.31-1.74-25.73-6.97-33.61-20.07-4.73,1.53-9.03,3.19-13.47,4.28-4.83,1.19-9.76,2.17-14.71,2.66-12.76,1.27-18.07-1.76-24.1-13.14-.75-1.42-1.47-2.86-2.49-4.84-7.55,3.43-14.76,6.53-21.82,9.95-14.24,6.9-29.58,10.15-44.98,12.25-16.87,2.3-32.25-.63-38.67-19.93-9.32.07-17.37,3.43-25.31,6.34-14.52,5.32-29.67,7.39-44.78,8.99-7.29.77-15.1-1.57-22.44-3.45-7.79-2-13.24-7.38-16.54-14.81-1.05-2.37-2.29-4.66-3.81-7.73Zm285.05,6.07c10.27-4.87,20-8.21,26.77-16.68,5.88-7.35,4.71-12.37-4.32-16.69-17.19,13.12-21.59,19.37-22.45,33.37Zm-275.39-18.78c5.91-4.09,11.05-7.13,15.55-10.92,3.73-3.14,2.4-8.04-2.3-8.99-2.42-.49-5.45-.22-7.64.86-4.65,2.29-7.27,10.73-5.61,19.05Zm110.78,10.98c5.34-3.74,12.46-4.28,12.78-10.89.27-5.59-3.32-10.43-9.08-12.73-6.08,7.62-6.68,10.91-3.7,23.62Z"/><path d="m654.47,826.7c-19.04,10.97-39.15,18.74-59.77,25.21-20.27,6.36-40.7,12.74-61.89,14.62-27.13,2.41-53.87-.67-79.04-11.98-8.94-4.02-16.13-10.77-21.73-18.72-9.92-14.06-16.5-29.4-17.04-47.05-.86-27.88,10.98-48.52,34.61-62.77,15.95-9.61,33.65-14.09,51.74-17.34,22.54-4.05,45.05-4.52,67.2,2.09,6.27,1.87,12.65,4.46,17.99,8.16,17.89,12.4,13.23,31.45-.44,40.39-14,9.15-28.69,17.07-44.95,21.11-8.27,2.05-17.12,2.83-25.64,2.51-9.92-.38-18.95-3.82-22.67-15.1,2.2-1.92,4.37-3.82,6.81-5.94.91,1.05,2.12,1.89,2.54,3.02,3,8.03,9.15,10.62,17.2,10.99,16.96.79,32.05-5.16,46.6-12.73,6.45-3.36,12.48-7.62,18.33-11.97,5.96-4.44,7.03-8.48,4.31-15.53-3.34-8.64-8.54-15.45-18.27-17.99-22.91-5.99-45.96-7.46-69.09-1.99-12.25,2.9-24.51,6.16-36.29,10.55-18.93,7.07-33.64,19.43-39.19,39.55-4.51,16.33-3.84,32.88,3.73,48.58,7.09,14.71,16.45,27.45,31.45,34.96,9.88,4.95,20.34,7.98,31.54,8.29,8.94.25,17.89,1.65,26.81,1.39,21.97-.63,43.75-2.77,64.56-10.75,19.84-7.61,39.83-14.79,59.62-22.52,5.41-2.11,11.02-4.47,13.42-10.91.53-1.43,3.87-2.91,5.49-2.53,1.49.35,3.8,4.09,3.36,4.74-3.76,5.62,1.65,8.83,3.53,12.31,1.87,3.47,5.97,6.17,9.68,8.07,2.93,1.5,6.74,1.29,11.25,2.02-.97-5-1.1-8.69-2.41-11.89-5.5-13.44-4.68-27.48-3.83-41.38.33-5.41,2.73-10.9,5.07-15.94,2.51-5.4,5.65-6.68,11.46-4.94,15.37,4.61,25.97,13.6,32.21,29.41,5.55,14.06,1.54,24.92-6.49,34.96-4.37,5.46-11.29,9.23-17.65,12.68-20.64,11.22-38.04,6.91-51.47-12.14-.73-1.04-1.53-2.03-2.64-3.49Zm42.11-52.55c-.61.81-1.26,1.56-1.78,2.4-.7,1.12-1.58,2.23-1.92,3.47-4.89,18.1-3.42,36.14,1.02,54.03.35,1.43,3.47,3.04,5.28,3.02,2.51-.03,5.06-1.36,7.48-2.42,17.44-7.6,19.52-10.95,19.91-29.92.07-3.63,1.33-7.23,2.43-12.82-10.17-4.56-16.73-17.4-32.42-17.77Z"/><path d="m0,163.08c7.67-8.08,17.45-10.81,26.24-15.2,1.77-.88,3.73-1.43,5.65-1.95,5.48-1.48,7.28-5.12,6.71-10.53-.97-9.24-1.15-18.61-2.74-27.73-3.15-18.06-2.06-36.26,1.79-53.59C42.97,30.1,55.58,10.12,81.43,3.01c16.34-4.5,32.94-3.59,49.34.33,11.3,2.7,22.88,4.88,32.27,12.43,5.12,4.11,10.37,8.23,14.74,13.09,11.35,12.62,12.09,27.76,5.24,41.95-5.53,11.47-14.49,21.33-22.26,31.66-1.15,1.53-4.28,1.42-6.23,2.54-29.63,16.99-61.84,27.65-94.04,38.32-3.42,1.13-4.73,3.11-5.35,6.3-1.52,7.82-3.17,15.62-4.83,23.42-1.9,8.91-.86,10.96,7.7,14.01,8.12,2.9,16.27,5.75,24.45,8.48,17.62,5.88,35.3,11.62,52.91,17.52,11.14,3.73,21.24,9.5,30.4,16.8,12.3,9.79,14.12,20.68,6.17,34.23-2.09,3.56-3.7,7.39-6.32,12.72-.99-3.27-2.21-5.26-1.98-7.06.31-2.56,1.54-5.06,2.63-7.46,6.06-13.27,3.85-20.02-8.11-28.71-13.73-9.98-29.55-14.92-45.28-20.28-14.46-4.93-28.84-10.07-43.27-15.08-6.22-2.16-12.49-4.19-18.94-6.36-4.21,5.6,1.01,10.57-.1,15.65-1.05,4.8-.42,9.98-1.52,14.76-1.14,4.93-3.48,9.59-7.18,13.94,1.16-10.8,2.32-21.6,3.71-34.49-6.38,8.02-13.4,43.2-12.54,56.92,7.02-3.06,1.7-15.22,13.39-16.91-4.13,12.81-7.75,24.41-11.72,35.88-.5,1.44-2.83,3.19-4.3,3.17-3.6-.05-5.16-3.01-5.12-6.2.12-9.62-.5-19.42,1.12-28.81,2.99-17.31,7.06-34.46,11.34-51.51,1.4-5.58-.47-8.07-4.97-10.06-6.08-2.69-12.03-5.68-18.21-8.11-6.18-2.43-10.57-6.58-14.6-12.98Zm44.51-21.73c5.53-1.88,9.42-3.38,13.42-4.52,3.13-.89,6.55-.9,9.57-2.03,16.45-6.14,32.93-12.21,49.15-18.92,9.77-4.04,19.35-8.71,28.47-14.04,5-2.92,8.31-8.75,13.33-11.6,10.43-5.95,14.9-15.61,18.8-25.98,2.44-6.48,2.44-12.8.2-19.42-3.33-9.82-8.96-17.79-17.73-23.26-24.73-15.41-51.65-18.46-79.43-11.76-11.4,2.75-20.85,10.2-26.76,20.94-1.35,2.45-.93,6.27-2.73,8.02-7.07,6.86-7.78,15.93-9.21,24.6-4.27,25.9.61,51.47,2.9,77.97Zm-2.82,37.96c-.44-9.73-.81-18.02-1.21-27.02-12.03,1.49-21.07,5.95-32.1,12.18,11.89,5.3,21.46,9.56,33.32,14.84Z"/><path d="m878.89,497.99c5.42,2.9,7.96,6.84,7.45,13.06-.4,4.84.58,9.79.53,14.68-.09,8.13-5.13,12.63-12.17,15.34-4.87,1.87-9.82,3.55-14.54,5.24-.12,5.72,2.91,7.48,6.82,7.92,8.56.96,17.07,2.09,25.68-.62,5.52-1.73,11.39-2.31,17.68-1.78-1.51.96-2.92,2.46-4.56,2.8-11.67,2.42-23.36,4.8-35.11,6.8-10.8,1.83-19.02-1.79-23-12.86-8.32-1-17.32-.06-22.01-9.68-17.87,11.48-37.7,13.99-57.3,17.09-5.2.82-10.65.87-15.89.32-7.15-.75-13.49-3.7-17.11-10.08-10.05,1.83-19.46,3.55-28.87,5.24-2.29.41-4.6.81-6.92,1.01-8.77.76-17,.31-19.54-9.79-14.16,3.84-27.56,7.57-41.01,11.11-15.97,4.21-34.82-2.79-39.75-22.2-.65-2.55-2.36-4.86-2.88-7.42-.58-2.86-1.19-6.16-.31-8.79,2.39-7.16,4.97-14.38,8.57-20.98,3.11-5.7,6.94-11.53,11.86-15.6,8.37-6.93,18.63-5.27,25.6,3.07,6.57,7.86,10.31,17.32,11.34,27.26.82,7.83-4.15,13.98-10.83,17.81-5.16,2.96-10.86,5.01-16.42,7.21-3.67,1.45-7.52,2.45-11.82,3.82,2.3,7.71,8.57,8.85,14.62,9.57,11.22,1.34,21.75-1.94,32.11-5.8,1.56-.58,3.02-1.62,4.61-1.88,12.36-2.01,17.12-10.87,20.07-21.63,1.05-3.82,2.59-7.55,4.23-11.17,2.91-6.42,7.68-6.83,11.98-1.33,3.3,4.22,3.25,9.08,1.09,13.21-2.73,5.19-6.88,9.62-10.16,14.54-1.32,1.98-3.22,4.82-2.64,6.5.67,1.93,3.83,4.32,5.84,4.26,11.86-.36,23.91.35,35.29-4.27,3.32-1.35,3.87-3.96,4.37-7.12,1.75-11.13,7.14-19.89,17.34-25.35,3.71-1.99,7.01-1.41,10.25.92,2.98,2.14,3.3,4.72,1.11,8.36-3.65-.91-7.49-3.83-11.35.17-4.21,4.36-8.97,8.19-6.4,15.87,10.08-.11,13.35-11.09,22.57-14.19-.3,2.06-.15,3.87-.84,5.26-3.02,6.12-7.5,10.92-13.63,14.12-2.79,1.46-5.45,3.18-9.37,5.48,2.94,2,4.3,3.51,5.95,3.95,10.12,2.7,20.23,3.44,30.48.04,7.24-2.4,14.94-3.54,22.03-6.28,6.72-2.59,13.42-5.86,19.13-10.17,2.97-2.24,4-7.26,5.51-11.18,2.69-7,3.3-7.59,11.63-7.47-1.2,3.61-2.39,6.85-3.33,10.16-.9,3.18-2.14,6.43-2.15,9.66-.02,4.37,2.35,7.53,7.1,8.26,4.67.71,7.74-.81,8.86-5.71.81-3.57,1.84-7.09,2.91-10.59,4.01-13.03,13.54-20.69,25.29-26.18Zm-255.69-14.75c-11.63,9.99-15.7,22.84-15.94,37.17-.13,7.99,2.44,10.23,10.38,8.88,5.51-.94,11.05-2.41,16.21-4.52,14.25-5.83,16.99-18.47,7.04-30.22-2.23-2.63-3.92-5.73-6.06-8.9-3.24-.67-7.08-1.47-11.64-2.41Zm254.09,22.91c-13.02,7.39-15.17,18.97-17.46,32.7,6.53-2.18,11.25-3.53,15.78-5.38,1.67-.68,3.84-2.37,4.11-3.9,1.37-7.76,2.85-15.68-2.43-23.42Z"/><path d="m2335.75,235.85c-2.71.95-5.44,1.96-8.2,2.87-16.36,5.42-32.46,11.95-49.19,15.8-10.78,2.49-22.65,2.4-33.71.99-13.04-1.65-25.35-6.54-30.25-21.57-8.91,3.87-16.93,7.67-25.19,10.88-14.29,5.55-28.86,9.9-44.51,9.19-12.61-.57-21.16-6.65-26.47-17.93-1.42-3.01-3.62-5.66-5.9-9.16,0-2.12.82-5.82-.14-8.99-3.96-13.04-3.37-26.23-2.41-39.52.41-5.59.37-11.22.33-16.84-.04-4.61,5.51-13.33,9.78-13.5,2.44-.1,6.18,1.7,7.27,3.74,3.25,6.1,6.72,12.53,7.87,19.21,2.93,17,2.41,33.78-8.11,48.79-1.1,1.56-1.42,4.39-.87,6.27,5.15,17.6,17.26,24.6,35.24,19.97,16.75-4.31,33.22-9.58,48.21-18.55-.46-7.87-1.15-15.72-1.32-23.57-.13-6.31.24-12.54,3.48-18.4,1.35-2.43,1.16-5.75,1.51-8.69,1.12-9.24,9.81-18.78,18.73-19.64,2.2-.21,5.25,1.28,6.84,2.99,5.32,5.71,9.08,12.42,9.15,20.49.14,16.04-4.47,30.05-17.45,40.59-7.81,6.35-7.43,13.88.69,20.09,6.25,4.78,13.61,7.19,21.28,7.71,12.67.87,25.19-.11,37.45-4.15,9.43-3.1,19.19-5.21,28.78-7.86,3.51-.97,6.87-2.51,10.42-3.28,5.92-1.29,7.53-5.2,8.51-10.69,2.14-11.97,5.03-23.81,7.74-35.67.42-1.82,1.53-3.47,2.32-5.2l2.72,2.22c-.58,1.59-1.21,3.17-1.74,4.79-1.12,3.42-2.78,6.35,2.59,8.61,4.87,2.05,3.09,6.47.67,10-2.98,4.37-5.31,8.93-5.59,15.25,10.38-1.75,14.54-10.66,21.92-15.09-3.76,10.92-13.01,16.55-21.77,22.29-.32,14.62,7.05,21.63,21.31,20.77,18.24-1.1,34.93-7.55,51.48-14.59,2.3-.98,4.68-1.79,7.02-2.67.33.67.66,1.33,1,2-4.71,2.53-9.19,5.66-14.16,7.48-13.05,4.78-26.05,10.1-39.53,13.17-21.85,4.98-29.72.15-37.81-20.62Zm-112.78-14.55c4.09-4.49,8.12-8.77,11.99-13.2,7.4-8.45,7.9-18.81,6.95-29.1-.43-4.69-3.08-9.3-8.13-11.26-15.3,13.57-20.71,39.4-10.81,53.56Zm-102.21-60.21c-1.61,17.71-5.12,34.04.95,51.41,10.47-11.64,8.7-23.99,6.95-36.15-.75-5.2.07-11.5-7.9-15.26Z"/><path d="m1687.78,195.55c4.43-13.87,8.19-26.17,12.34-38.33,1.29-3.78,2.33-8.67,8.85-7.8,1.03,4.25,2.92,8.41-.18,12.27-3.29,4.09-2.9,8.57-2.64,13.25.28,5.22,1,10.28-5.26,13.69-2.41,1.31-2.88,6.37-4,9.8-2.81,8.61-4.75,17.37-2.8,26.46.87,4.05,1.32,8.52,6.9,11.33,2.95-8.38,1.47-15.77-1.82-23.32,9.06,3.55,9.18,3.88,9.26,26.95,7.15,0,14.57,1.13,21.49-.25,12.32-2.46,24.42-6.19,36.46-9.87,7.53-2.3,7.27-2.69,6.92-10.7-.66-15.15,3.36-28.92,12.72-40.97.56-.73,1.59-1.09,3.26-2.18,1.78,2.18,3.52,4.31,5.3,6.48-7.34,11.52-12.87,23.02-10.25,37.29,14.81-3.57,13.15-15.16,13.18-25.92,10.66,16.68-.36,26.24-12.05,35.32,3,7.07,7.2,10.98,14.45,10.93,5.65-.03,11.3,0,17.46,0-10.11,9.24-27.51,6.62-41.04-5.13-17.23,4.09-33.88,8.36-50.69,11.84-5.76,1.19-11.98.9-17.91.38-5.85-.52-11.06.62-16.47,2.63-28.19,10.5-57.4,13.48-87.28,11.4-6.05-.42-10.89-3.02-15.14-6.83-7.46-6.68-6.2-20.93,2.41-25.99,2.18-1.28,5.34-.9,8.05-1.29.43.66.86,1.32,1.28,1.98-1.62,2.69-3.2,5.4-4.88,8.06-4.28,6.78-2.93,12.74,4.78,14.62,8.27,2.02,17.1,3.16,25.57,2.65,15.19-.92,30.35-3.02,45.4-5.35,6.41-.99,12.54-3.83,19.98-6.21-8.48-13.6-7.71-27.39-5.29-42.03-12.4-5.81-23.17-14.46-37.82-13.46-5.85.4-10.25,2.68-13.31,7.46-8.81,13.76-4.42,33.26,4.32,42.61,1.93,2.06,4.95,3.27,7.66,4.4,2.71,1.13,5.67,1.68,10.86,3.14-3.79,1.12-5.48,2.21-6.95,1.97-17.61-2.88-23.94-11.7-28.57-31.14-3.25-13.62,1.3-24.05,13.23-31.51,6.3-3.94,13.05-5.62,19.96-3.45,7.86,2.47,15.4,6.01,22.97,9.34,2.96,1.3,5.61,3.29,9.31,5.5Z"/><path d="m371.88,251.17c-15.76,13.82-34.8,9.8-41.18-7.46-2.49-6.73-3.83-14.15-4.24-21.34-1.05-18.31.48-36.53,3.53-54.65,2.03-12.1,3.52-24.29,5.17-36.45.25-1.87.04-3.8.04-6.11-10.09,0-19.35.28-28.57-.06-14.39-.53-28.43-2.8-41.4-9.67-8.57-4.54-14-11.67-19.25-21.69,3.46.27,6.63-.23,7.09.67,4.87,9.39,14.32,12.52,22.83,16.33,19.47,8.72,39.86,9.09,61.41,4.48,3.71-16.97,7.23-34.12,11.25-51.15,3.91-16.58,5.59-33.75,12.04-51.97,4.77,4.29,7.93,7.14,12.68,11.42-4.57.35-6.65.52-8.61.67-4.82,30.41-14.83,59.46-18.26,91.49,55.94-7.04,109.71-18.86,164.21-31.7-1.11,5.84-5.49,5.78-8.4,6.6-11.8,3.34-23.69,6.44-35.67,9.08-27.22,5.99-54.47,11.8-81.78,17.37-11.38,2.32-22.91,3.98-34.42,5.61-5.25.75-7.35,3.51-7.94,8.51-2.99,25.39-6.81,50.71-8.91,76.17-.89,10.73.92,21.91,2.97,32.61,2.18,11.42,12.86,17.01,24.45,14.24,2.86-.68,5.68-1.55,10.98-3Z"/><path d="m210.19,456.25c-8.36-1.2-10.84,3.39-14.1,8.23-10.79,15.99-12.68,34.13-13.61,52.43-.45,8.89.67,17.92,1.73,26.8,1.59,13.27,6.95,17.35,20.22,17.77,21.78.68,39.69-9.58,57.64-19.73,4.29-2.43,6.04-6.47,5.57-11.86-.66-7.6-.11-15.3-.5-22.93-.27-5.31,2.13-8.87,6.1-11.77,4.31-3.15,7.4-2.4,9.03,2.83,2.75,8.86,2.53,17.84-1.51,26.28-3.17,6.63-2.21,12.86.1,19.32,1.95,5.44,5.81,8.06,11.42,7.78,11.41-.57,22.27-3.65,32.68-8.17,5.8-2.52,8.33-7.25,7.89-13.68-.27-3.97-.43-8.02.08-11.94.61-4.78,3.9-6.82,8.54-6,4.41.78,4.89,4.19,4.47,7.6-.64,5.25-1.38,10.55-2.79,15.63-1.87,6.74.26,12.54,3.45,18.05,2.48,4.28,6.53,6.17,11.7,6.33,15.44.48,30.48-1.89,45.35-5.74,3.46-.9,6.93-1.77,10.93-1.33-1.88,1.05-3.65,2.42-5.66,3.1-14.51,4.92-29.34,8.06-44.72,8.8-13.73.67-26.47.02-31.32-16.69-3,1.17-5,2.18-7.12,2.75-11.5,3.09-22.9,6.78-34.58,8.86-8.12,1.45-14.83-2.68-18.99-10.15-.77-1.38-1.53-2.77-2.72-4.91-17.53,15.29-39.2,18.56-60.06,23.66-7.01,1.71-14.54,2.01-21.46-1.66-8.86-4.71-12.45-12.69-13.27-22.08-2.7-31.05,1.96-61.03,13.57-89.94.86-2.15,1.86-4.3,3.09-6.26,3.55-5.63,7.17-5.68,11.34-.38,1.99,2.53,4.12,4.94,7.52,9Z"/><path d="m1234.11,527.31c.3,3.6-.69,6.34-4.2,8.19-15.03,7.92-29.83,16.2-47.97,10.45-2.73-.87-6.37.72-9.49,1.55-6.38,1.7-12.59,4.6-19.06,5.31-11.25,1.24-16.4-2.71-19.94-13.65-1.3-4.04-1.93-8.29-3.06-13.34-2.57.96-5.02,1.56-7.17,2.72-16.81,9.1-34.97,14.29-53.44,18.5-7.78,1.77-14.39-1.73-18.13-8.86-5.78-11.02-5.49-22.84-1.92-33.96,3.42-10.63,9.03-20.61,14.17-30.62,3.62-7.05,8.06-13.68,12.17-20.48,2.28-3.76,6.02-6.07,12.38-7.13-1.54,14.12-9.37,25.02-15.19,37.94-1.05-2.31-1.56-3.43-2.59-5.7-10.51,16.2-17.55,32.39-12.34,51.46,2.26,8.27,6.55,10.59,15.1,9.14,9.07-1.54,18.08-3.41,27.08-5.28,1.54-.32,3-1.25,4.37-2.11,3.6-2.25,6.84-5.5,10.74-6.77,14.14-4.6,19.03-15.37,20.4-28.75.4-3.95.2-7.96.51-11.92.42-5.37,5.24-9.77,11.36-9.33-1.04,3.57-2.06,6.92-2.97,10.3-.5,1.85-1.62,4.06-1.05,5.58,2.82,7.55-.28,14.15-2.17,21.2-2.31,8.66-3.64,17.67.75,26.33,2.05,4.04,4.61,7.78,9.67,7.32,8.81-.8,17.65-1.87,26.38-6.62-3.71-15.55,5.7-28.43,7.61-42.83.09-.65.16-1.57.58-1.86,3.42-2.34,4.18-8.7,9.46-7.72,5.17.96,5.62,6.18,5.82,10.38.3,6.62.72,13.43-.43,19.88-1.47,8.25-2.86,16.96-10.54,23.1,16.07.94,30.54-2.57,43.31-12.24l-.21-.19Zm-46.99,3.87c6.85-2.55,5.47-7.19,5.73-11.21.25-3.72,3.74-7.42.16-12.67-3.49,8.16-6.6,14.86-5.89,23.87Z"/><path d="m1498.16,495.63c-9.83,18.45-25.86,29.14-45.89,31.31-16.62,1.8-32.19,7.75-48.6,9.5-9.21.98-18.63.77-27.91.26-7.87-.43-12.45-5.42-13.76-13.4-.47-2.88-.53-5.84-.84-9.59-2.63.81-4.71,1.46-6.79,2.09-10.16,3.07-20.18,6.84-30.53,9.01-13.61,2.86-20.16-3.65-21.46-17.6-1.71-18.31,3.35-34.7,11.82-50.44,1.68-3.12,2.73-7.04,8.23-6.56,3.72,6.74,6.94,13.69,3.56,22.7-2.56-1.53-4.68-2.79-7.04-4.2-3.88,3.29-5.84,7.33-6.08,12.15-.46,9.23-1.62,18.55-.86,27.7.67,8.1,3.38,8.94,11.55,8.18,10.95-1.01,21.73-2.17,31.68-7.55,5.74-3.1,10.45-6.77,12.94-13.07,2.32-5.87,5.06-11.57,7.8-17.27,1.14-2.37,2.48-4.75,4.21-6.71,2.27-2.58,5.25-4.63,8.72-2.26,2.77,1.89,2.82,4.68,1.94,7.98-2.43,9.19-6.11,17.39-13.57,23.83-6.6,5.7-8.7,12.99-5.67,21.62,1.42,4.04,3.88,5.71,7.93,6.31,17.8,2.68,34.91-.33,51.79-5.77,4.52-1.46,6.3-4.23,5.87-8.97-1.52-16.71,5.14-31.16,12.76-45.34,2.56-4.77,6.2-7.56,12.73-7.72,10.26,21.35-.27,38.77-11.2,56.98,14.3-.45,26.06-4.29,35.13-14.58,3.31-3.75,6.18-7.96,11.82-8.34l-.25-.24Zm-51.7,15.74c8.71-1.58,9.03-9.05,11.41-14.2,3.19-6.9,7.02-14.28,2.48-22.4-9.5,4.87-15.14,19.5-13.88,36.6Z"/><path d="m2264.88,840.97c-6.8,1.06-13.56,2.52-20.4,3.11-13.91,1.19-27.86,1.98-41.8,2.82-12.27.74-24.55,1.81-36.83,1.85-9.6.03-19.33-.55-28.77-2.19-14.37-2.48-24.84-10.61-30.22-24.57-2.12-5.51-4.22-11.03-6.82-17.8-5.69,3.65-10.74,7.11-16.02,10.22-8.01,4.72-16.03,9.46-24.32,13.65-3.98,2.01-8.4,4.4-13.54,1.63-2.75-6.82-.11-12.7,3.64-18.45,2.72-4.16,5.74-8.23,7.75-12.74,3.98-8.93,1.78-12.78-7.85-14.65-2.58-.5-5.3-.3-7.95-.35-18.44-.35-36.33,3.58-54.25,7.16-2.07.41-4,1.96-5.79,3.26-2.3,1.66-4.39,3.61-8.07,6.68.78-7.54,2.69-11.94,8.44-13.71,9.18-2.82,18.26-6.46,27.66-7.92,12.11-1.89,24.5-2.05,36.78-2.77,2.6-.15,5.4.06,7.86.86,13.73,4.4,17.5,16.79,9.14,30.26-2.6,4.18-5.87,7.95-9.25,12.46,4.17,1.86,6.82-.4,9.29-1.98,11.42-7.28,22.83-14.58,34-22.23,4.25-2.91,5.37-7.79,6.96-12.7,2.29-7.08,6.37-13.68,10.35-20.07,2-3.2,3.41-2.83,11.23-.7.57,8.62-2.56,16.6-7.98,22.63-9.41,10.47-5.32,21.15-2.19,31.77,2.99,10.15,10.2,17.46,20.31,20.36,8.83,2.53,18.19,4.58,27.3,4.56,30.57-.07,61.13-1.17,91.69-1.86,3.17-.07,6.35,0,9.53,0,.03.47.07.93.1,1.4Z"/><path d="m1652.42,450.47c-6.77,4.53-13.75,8.79-20.26,13.67-6.04,4.52-12.53,8.66-16.27,15.77-.68,1.3-3.73,1.35-5.69,1.97-.29-1.83-1.36-4.02-.72-5.43,2.66-5.85,4.42-11.96,12.48-14.04,5.43-1.4,9.87-6.54,14.82-9.89,5.22-3.53,10.31-7.37,15.91-10.19,2.58-1.31,6.22-.52,9.38-.69.16,3.11,1.38,6.69.27,9.25-3.42,7.89-7.7,15.42-11.72,23.05-3.55,6.75-7.46,13.33-10.68,20.23-1.29,2.77-1.18,6.2-1.79,9.83,26.2,4.77,49.68-1.66,73.66-9.35.4-5.25.36-10.56,1.27-15.71,2.27-12.78,6.94-24.1,19.07-31.12,13.12-7.6,36.7-5.63,45.82,12.68-3.89-1.66-6.43-2.81-9.01-3.82-5.21-2.03-10.31-4.72-15.72-5.82-10.4-2.1-19,1.9-25.43,10.15-4.65,5.98-7.8,12.75-7.92,21.01,1.18-1.6,2.5-3.11,3.5-4.81,4.12-7.03,9.36-12.79,17.06-16.04,6.25-2.64,7.03-2.03,7.14,5.41-5.73,2.85-11.23,5.58-16.41,8.15-.81,4.1-1.49,7.58-2.31,11.75,4.07-1.11,7.7-2.09,11.33-3.08.31.51.63,1.01.94,1.52-3.47,2.68-6.81,5.57-10.47,7.96-2.36,1.54-5.18,3-3.7,5.96.94,1.88,3.78,3.77,5.88,3.91,5.25.34,10.69.31,15.81-.75,6.78-1.4,13.4-3.7,19.96-5.99,12.11-4.23,14.56-7.97,14.23-20.66-.03-1.24-.13-2.47,1.37-4.62,1.28,1.89,3.22,3.62,3.72,5.69,2.19,9.22-.9,17.48-9.16,22.33-5.06,2.96-10.86,5.06-16.6,6.38-10.9,2.5-21.99,4.17-33.46,6.27,1.48,6.1,8.54,6.23,11.22,12.12-13.23-2.39-19.86-11.18-25.76-21.33-2.03.25-4.05.16-5.83.77-18.03,6.21-37.03,7.29-55.61,10.56-3.24.57-6.68.54-9.96.19-11.12-1.2-16.19-8.44-12.02-18.88,3.67-9.17,8.88-17.75,13.76-26.4,3.05-5.4,6.74-10.43,10.15-15.63-.74-.77-1.49-1.55-2.23-2.32Z"/><path d="m1945.72,652.33c9.18,9.22,10.99,19.23,13.59,28.89-.63.27-1.27.55-1.9.82-1.6-4.11-2.95-8.35-4.89-12.29-.89-1.8-2.7-3.71-4.51-4.27-.95-.3-3.47,1.92-4.08,3.47-3.9,9.87-8.18,19.67-11,29.86-7.67,27.74-9.7,56.28-11.28,84.92-1.87,33.93-3.45,67.84-.93,101.77.74,9.9,2.57,19.73,4.18,29.54.51,3.12,1.94,6.09,3.25,10.03,8.91-5.79,9.36-16.44,16.76-21.77.71,7.47-2.13,16.59-6.31,21.34-2.19,2.49-3.85,5.45-6.1,7.87-3.3,3.55-7.42,3.26-9.72-1.03-2.66-4.94-5.44-10.11-6.59-15.52-2.06-9.69-3.44-19.59-4.21-29.47-1.06-13.6-2.02-27.28-1.73-40.89.53-24.92,1.63-49.85,3.23-74.73,1.07-16.56,2.88-33.11,5.35-49.52,2.92-19.43,7.39-38.57,17.59-55.77,2.47-4.17,5.56-7.98,9.29-13.26Z"/><path d="m1444.49,191.79c5.05,6.85-5.31,14.23,3.23,18.5-1.78,4.59-3.86,8.48-4.76,12.62-2.02,9.29,2.9,13.81,12.32,11.87,1.84-.38,3.7-.64,6.48-1.1-10.8,10.07-24.57,13.76-29.05-7.55-13.81,6.34-28.59,8.09-43.41,9.5-9.32.88-18.47-.07-27.51-3.02-8.34-2.72-15.08-6.8-18.34-15.38-.45-1.19-1.46-2.17-2.05-3.02-6.2-2.37-13.18,1.01-18.76-4.45,5.5-.52,11-1.04,16.91-1.6-1.42-15.68,2.57-28.72,10.97-40.41,7.69-10.7,18.77-12.47,30.79-6.69,13.13,6.32,17.33,17.29,16.79,30.26-.34,8.35-7.28,13.16-14.59,16.13-4.55,1.85-9.56,2.64-14.42,3.67-4.83,1.03-9.72,1.77-15.3,2.77,3.37,7.27,8.98,10.26,15.35,12.44,13.54,4.64,26.97,2.49,40.33-.69,5.47-1.31,10.65-3.92,16.15-4.91,7.33-1.32,9.54-5.95,10.58-12.44.67-4.21,2.18-8.34,3.79-12.3.62-1.52,2.58-2.49,4.48-4.2Zm-91.91-17.67c.76,1.28,2.31,2.74,2.05,3.69-1.07,3.8-2.93,7.38-4.07,11.17-2.26,7.51,4.5,17.74,11.36,16.55,7.41-1.29,14.8-3.4,21.81-6.15,6.49-2.55,9.65-10.69,7.93-17.43-2.16-8.46-11.78-16.83-20.5-17.48-1.81-.13-3.9.55-5.51,1.47-4.48,2.57-8.78,5.47-13.06,8.18Z"/><path d="m456.82,532.15c8.66-2.72,16.09-5.38,23.7-7.33,4.77-1.22,9.8-1.86,14.73-1.93,11.14-.15,13.35,2.42,12.86,13.62-.41,9.25,4.88,16.98,13.57,19.66,1.56.48,3.26.72,4.9.72,7.97.02,16.04.68,23.86-.43,4.38-.62,8.33-4.24,12.76-6.66-1.98,8.14-9.03,10.54-15.91,11.36-10.14,1.21-20.37,2.27-30.73.48-12.99-2.25-20.43-13.55-16.35-25.99,1.99-6.08.96-8.01-5.41-7.93-14.12.16-26.46,5.81-37.75,13.78-1.88,1.33-3.08,4.4-3.51,6.86-2.4,13.74-13.7,20.83-22.28,29.83-1.67,1.75-5.93,1.04-9.63,1.54-.52-10.84.01-19.79,8.47-26.33,2.35-1.82,3.91-4.9,6.45-6.19,12.46-6.3,10.53-17.21,8.86-27.65-.92-5.77-3.56-11.27-5.79-18-2.64,2.14-4.59,3.71-6.53,5.29-7.72,6.29-15.12,13.04-23.27,18.71-4.75,3.31-7.92,5.96-4.57,11.89.34.6-.22,1.71-.39,2.79-3.42-3.6-6.62-6.97-10.82-11.39-.76-2.65,1.57-4.84,4.94-6.11,12.11-4.56,21.7-12.59,30.55-21.71,1.39-1.43,2.93-2.72,4.42-4.05,6.16-5.52,9.78-5.43,13.09,1.77,3.57,7.77,5.88,16.14,8.49,24.32.79,2.46.77,5.18,1.29,9.06Zm-26.21,34.93c4.52-3.79,10.47-6.46,9.92-13.69-4.13,4.02-10.25,6.46-9.92,13.69Z"/><path d="m2540.39,209.93c-1.78,4.53-2.89,9.5-5.47,13.52-11.06,17.27-27.51,27.76-46.44,34.27-15.37,5.28-28.6-.24-38.18-12.31-6.49-8.18-11.93-17.77-11.26-29.12.46-7.66,3.42-13.38,10.82-17.43,6.86-3.76,12.08-10.5,18.92-14.32,8.29-4.63,17.32-8.23,26.39-11.13,21.37-6.83,44.25,12.43,45.22,36.51Zm-24.2-30.44c-4.67-.31-7.76-1-10.71-.62-9.45,1.2-18.36,2.86-26.92,8.57-6.59,4.4-13.8,7.72-18.9,14.04-11.12,13.79-11.13,28.96.74,41.07,6.87,7.01,15.19,11.48,25.13,8.17,14.29-4.76,27.81-11.51,38.3-22.54,7.62-8.02,11.08-19.34,4.56-31.26-2.05-3.76-3.74-7.71-4.94-10.2-4.67-1.3-8.37-2.33-13.18-3.67,2.14-1.29,3.15-1.89,5.92-3.56Z"/><path d="m1828.6,481.51c-3.87-11.24-2.25-15.73,5.63-20.45,6.74-4.04,13.72-6.72,21.73-5.98,8.19.76,11.66,3.72,11.53,11.85-.11,6.52-1.61,13.02-2.68,19.5-.32,1.94-1.5,3.73-1.91,5.67-2.02,9.48,4.2,17.62,13.92,17.06,6.17-.36,12.33-2.31,18.29-4.18,1.84-.58,3.42-3.05,4.42-5.02,1.81-3.53,3.07-7.34,4.59-11.02,1.78-4.29,3.49-8.62,5.43-12.83,1.26-2.75,2.9-5.87,6.64-4.39,3.69,1.46,2.93,4.6,1.81,7.64-1.39,3.75-2.56,7.57-3.86,11.35-.97,2.82-2.14,5.58-2.96,8.44-3.37,11.75-.56,14.87,11.13,12.53,3.46-.69,6.93-1.31,10.56-1.39-5.07,4.63-11.11,7.22-17.6,8.39-7.15,1.29-13.53.1-15.43-7.9-7.56,1.97-14.4,4.61-21.43,5.34-6.76.7-13.73-.59-21.21-1.04-.98,3.93-1.56,8.22-3.2,12.06-.84,1.97-3.58,3.14-5.46,4.67-1.48-1.87-3.85-3.57-4.28-5.66-1.13-5.47-2.36-11.21-1.8-16.67.68-6.64.86-13.72,7.65-18.5,7.77-5.47,8.18-14.79,9.43-23.21.46-3.07-1.95-5.23-5.67-5.59-9.59-.93-15.51,4.31-20.36,11.52-1.52,2.26-2.89,4.61-4.88,7.82Z"/><path d="m2567.78,156.79c-.85,2.86-1.56,5.24-2.21,7.44q6.12,5.2,2.01,6.95c-1.48,14.63-2.77,29.47.24,44.3.73,3.57,1.74,7.14,3.11,10.51,5.72,14.08,13.76,18.3,29.45,11.01,10.46-4.87,20.01-11.79,29.71-18.18,6.98-4.6,10.21-10.98,8.05-19.73-3.75-15.14-2.56-30.39.08-45.55.39-2.22,2.3-4.18,3.5-6.26,1.82,1.62,4.8,2.96,5.25,4.89,2.2,9.34,4.17,18.77,5.36,28.29,1.22,9.73-.48,19.19-5.23,27.99-1.23,2.28-1.75,4.96-2.06,5.89-3.86,2.34-7.25,3.47-9.27,5.79-10.3,11.85-22.97,20.17-37.54,25.5-16.05,5.87-27.35,1.62-34.63-13.84-3.46-7.34-6.15-15.75-6.36-23.75-.39-14.53,1.13-29.14,2.32-43.68.32-3.87,1.17-8.8,8.21-7.57Zm76.64,15c-.73.01-1.46.02-2.19.04v21.85c5.67-7.21,4.89-14.53,2.19-21.88Z"/><path d="m2107.48,241.05c-1.78.91-3.58,1.78-5.34,2.73-14.3,7.72-28.39,15.87-42.96,23.04-9.95,4.9-21.04,5.84-32.08,5.55-10.5-.27-23.68-10.25-26.77-20.99-2-6.96-3.69-14.35-3.54-21.5.31-14.91,1.11-29.91,3.25-44.65,1.86-12.73,5.17-25.36,9.1-37.63,4.14-12.93,9.76-25.4,14.79-38.04.73-1.84,1.37-4.19,2.81-5.15,1.5-.99,3.93-.56,5.95-.75-.03,1.73.59,4.52-.19,4.99-3.71,2.23-4.41,5.22-4.26,9.23.08,2.11-1.46,4.28-2.29,6.42-9.31,23.86-17.62,47.96-18.41,73.95-.41,13.56-3.41,26.98-.41,40.7,1.71,7.79,5.06,14.37,9.96,20.29,3.62,4.36,8.71,5.71,14.28,5.87,17.37.51,32.28-6.69,46.82-14.92,4.61-2.61,8.8-5.14,14.56-5.53,4.15-.28,8.06-4.05,12.08-6.27.88.88,1.76,1.77,2.65,2.65Z"/><path d="m2659.13,222.41c-.69-19.87,7.8-36.4,21.37-49.52,16.53-15.99,57.68-16.17,68.08,18.74,3.2,10.75.58,21.18-6.78,28.88-13.41,14.02-28.96,25.37-48.41,30.03-8.14,1.95-13.95-1.89-14.34-10.29-.82-17.6,8.58-30.15,21.41-40.65.98-.8,3.38.13,6.2.34-4.78,7.61-9.19,14.04-12.95,20.84-2.38,4.3-4.29,9.02-5.49,13.78-1.62,6.46,1.28,9.09,7.5,6.85,8.31-3,16.86-5.59,23.75-11.67,4.23-3.73,9.09-6.73,13.36-10.42,12.68-10.94,11.64-35.16-3.03-42.77-8.16-4.24-18.59-6.36-27.77-5.78-10.35.65-18.92,7.81-25.1,16.51-6.93,9.77-13.06,20.02-15.93,31.87-.28,1.17-1.25,2.18-1.89,3.26Z"/><path d="m1498.41,495.87c.71-2.06.82-5.18,2.25-5.99,5.97-3.38,6.99-9.07,8.46-14.87,3.63-14.36,10.69-26.47,23.93-34.1,10.55-6.07,22.71-3.34,29.94,6.47,1.37,1.86,3.11,3.44,4.49,5.28,8.4,11.27,6.12,23.65-6.41,30.26-13.52,7.14-27.68,12.9-43.89,13.7-2.31,9.24,1.49,16.44,8.04,21.84,5.02,4.14,10.97,7.21,18.21,6.78,11.85-.71,23.73-.86,35.88-.28-5.82,1.37-11.58,3.24-17.47,4-10.51,1.35-21.11,2.62-31.67-.05-14.49-3.66-22.07-12.52-23.27-27.33-.29-3.53-.61-7.06-1.03-11.91-3.31,2.54-5.51,4.24-7.71,5.94,0,0,.26.25.26.25Zm29.26-5.9c10.85-4.51,20.86-8.05,30.28-12.77,7.98-4,9.59-12.59,5.06-20.6-5.77-10.2-16.19-14.89-23.99-10.77-.58.31-1.06.81-1.63,1.16-14.51,8.75-19.11,22.81-21.48,38.99,3.73-2.6,6.7-4.67,11.1-7.75.26,4.64.4,7.1.66,11.75Z"/><path d="m737.26,123.55c4.5,9.87,3.61,20.39,2.44,30.85-.79,7.07-4.35,13.02-7.91,19.14-10.8,18.53-28.73,28.15-46.78,36.83-18.13,8.72-28,3.33-33.8-15.92-3.6-11.97-3.39-24.32-2.11-36.61.48-4.68,4-7.37,7.29-6.09,3.35,1.3,6.57,4.74,4.48,7.6-6.05,8.26-2.78,16.59-1.73,24.97.37,2.93,1.37,5.8,2.22,8.66,3.56,11.94,6.58,13.55,18.69,10.88,7.85-1.73,15.69-3.2,20.42-10.75,15.75-6.86,21.89-19.87,24.14-36.02,1.36-9.76,4.24-19.32,6.69-28.91.49-1.93,2.1-3.58,3.19-5.36l2.77.74Z"/><path d="m540.65,200.87c2.89,1.86,5.56,3.58,8.74,5.63-2.54,4.15-7.63,6.74-5.44,12.19,2.07,5.12,1.97,11.23,7.3,14.84,3.11,2.1,5.93,3.26,10.06,2.97,17.27-1.24,30.6-10.6,43.41-20.65,8.32-6.53,8.12-17.24.2-25.04-8.5-8.36-18.49-14-30.85-14.41-7.83-.26-11.83,2.16-14.05,9.8-4.33,14.88-.66,28.18,8.67,40.2.58.75,1.03,1.6,2.75,4.3-3.25-1.67-4.92-2.15-6.09-3.19-13.2-11.82-16-30.59-11.12-45.84,2.52-7.86,7.95-11.56,16.47-11.85,8.29-.28,17.65.27,22.76,5.37,6.57,6.55,18.28,9.05,19.2,20.89.09,1.19,1.17,2.37,1.95,3.44,4.23,5.82,3.19,11.73-1.14,16.44-5.12,5.57-10.64,11.33-17.13,14.95-9.5,5.3-19.79,9.45-30.15,12.87-13.47,4.45-23.48-1.14-28.14-14.54-3.21-9.23-5.27-18.47,2.6-28.38Z"/><path d="m472.72,166.04c-11.87-3.45-21.51,1.83-31.45,4.53-10.08,2.73-15.92,11.64-23.78,18.57-2.72-6.33-.58-10.28,3.04-12.72,7.64-5.16,15.42-10.4,23.81-14.09,6.25-2.74,13.49-3.59,20.39-4.39,11.07-1.28,15.21,3.49,14.17,14.49-.89,9.4-6.17,16.68-10.65,24.41-2.83,4.88-6.35,9.54-8.2,14.77-1.59,4.5-2.25,9.83-1.55,14.53,1.35,9.11,6.98,12.58,16.24,12.14,8-.38,15.83-1.19,23.35-4.23,1.97-.8,4.37-.55,6.77.1-12.24,5.53-24.22,11.86-38.27,10.84-8.21-.6-15.36-9.37-16.25-19.9-.91-10.83,2.87-20.31,9.19-28.82,6.45-8.67,10.8-18.17,13.2-30.23Z"/><path d="m219.54,159.79c1.19,7.59,2.28,12.99,2.85,18.45,1.63,15.49,3.04,31.01,4.55,46.52.13,1.32.23,2.66.54,3.94,2.44,9.86,6.8,12.96,17.62,12.56-9.08,7.99-18.92,6.63-22.51-4.26-3.5-10.61-5.1-21.86-7.22-32.89-1.5-7.79-3.02-15.65-3.49-23.53-.32-5.44.96-11.02,1.96-16.46.2-1.1,2.32-1.84,5.7-4.33Z"/><path d="m1234.32,527.49c-12.23-14.04-4.4-28.21.19-42.1.79-2.41,4.83-4.45,7.75-5.27,3.55-.99,6.54.7,6.54,5.18,0,3.49,0,6.99,0,11.8-2.59-2.27-4.17-3.67-5.75-5.05-7.89,7.6-9.37,19-3.02,26.74,1.86,2.26,5.35,3.69,8.36,4.41,12.19,2.93,24.3,1.24,36.32-1.44.91-.2,1.9-.08,2.85-.01.26.02.49.39,1.87,1.55-18.66,6.57-36.54,10.3-55.34,4.01,0,0,.22.19.22.19Z"/><path d="m795.72,214.39c-6.27,4.1-12.28,8.7-18.89,12.15-6,3.14-11.69.98-13.45-5.62-1.83-6.86-2.61-14.35-2.04-21.41.46-5.64,3.86-10.99,5.45-16.61.5-1.76-.62-3.97-1.05-6.3,4.45-1.28,7.14.24,6.93,4.93-.24,5.6-.95,11.19-1.79,16.74-1.18,7.85-2.28,15.61,2.33,23.53,7.14-3.61,13.96-7.06,20.78-10.5.57,1.03,1.15,2.06,1.72,3.09Z"/><path d="m805.87,128.07c1.13-2.89,2.44-5.72,3.35-8.68,4.27-13.9,8.53-27.8,12.57-41.76.8-2.76.97-5.81.87-8.71-.16-4.63,2.11-6.5,6.76-6.97,1.96,3.83,3.86,7.56,6.15,12.03-5.39,1.95-6.92,6.24-8.67,11-5.01,13.62-10.82,26.96-16.44,40.35-.57,1.35-1.92,2.38-2.91,3.56-.56-.27-1.12-.54-1.68-.81Z"/><path d="m2066.16,1310.26c-3.57-.6-6.16-.71-8.54-1.49-18.24-5.92-35.26-4.65-50.89,7.54-3.82,2.98-8.56,4.79-13.59,7.52,11.76-16.37,33.59-24.82,58.19-22.75,5.73.48,11.82,1.17,14.82,9.18Z"/><path d="m581.69,478.67c-14.17-4.32-23.13-13.49-27.88-26.64-.56-1.55-1.5-3.25-1.26-4.71.33-2.01,1.46-5.36,2.53-5.48,2.16-.24,5.12.73,6.67,2.28,2.24,2.23,3.52,5.43,5.54,8.76-5.53,3.8-2.98,7.95.75,11.87,4.47,4.71,9.09,9.28,13.64,13.91Z"/><path d="m1964.05,506.84c7.46,12.61,3.27,36.96-7.47,47.85-.63-1.63-1.95-3.39-1.51-4.17,6.54-11.79,7.26-24.59,7.04-37.62-.02-1.45.9-2.91,1.95-6.07Z"/><path d="m228.54,415.96c-2.29-7.46-3.33-12.25-5.23-16.67-1.66-3.87-.76-6.4,2.47-8.46,3.72-2.36,5.76-.29,8.23,2.58,3.54,4.12,7.84,7.59,12.49,11.97-2.53-.3-4.4-.41-6.22-.78-1.88-.38-3.71-1.02-5.64-1.57-1.86,3.95-3.53,7.48-6.09,12.93Z"/><path d="m268.04,63.14c-.32-4.15-.59-8.3-.97-12.44-.53-5.85-.29-11.83-5.19-16.51-1-.96-.02-3.99.05-6.06,2.07.34,4.95-.05,6.07,1.17,3.76,4.07,7.26,8.41,5.31,14.88-1.02,3.37-.8,7.11-1.17,10.69-.28,2.72-.61,5.44-.91,8.16l-3.18.11Z"/><path d="m1972.5,380.18c-1.91,4.08-2.8,5.99-3.69,7.91,3.04,4.42,6.07,8.84,9.1,13.26-.56.48-1.13.96-1.69,1.44-5.84-2.6-10.63-6.81-13.6-12.47-1.05-2-.02-5.92,1.39-8.1.89-1.37,4.26-1.13,8.49-2.04Z"/><path d="m1526.65,85.47h-12.19c.73-5.09-.6-10.1,5.15-14.35,2.3,4.69,4.37,8.9,7.04,14.35Z"/><path d="m416.74,193.89c5.38,5.53,5.86,10.93,2.82,16.88-7.87-6.99-8.45-9.75-2.82-16.88Z"/><path d="m2310.56,1165.23c2.48,5.01,3.96,8.01,5.99,12.1q-8.93-4.06-5.99-12.1Z"/><path d="m490.72,762.44c-.87-6.51,2.02-7.32,7.74-5.8-3.19,2.39-5.46,4.1-7.74,5.8Z"/><path d="m1235.68,114.39c-2.12.3-3.48.91-4.25.47-.79-.44-1-1.91-1.46-2.93,1.05-.37,2.27-1.24,3.11-.96.86.28,1.36,1.69,2.61,3.42Z"/><path d="m1797.72,180.09c-1.41-1.95-2.82-3.91-4.66-6.44q5.12.87,4.66,6.44Z"/><path d="m2081.73,164.02h4.66c.09.5.19.99.28,1.49-1.6.36-3.2.73-4.81,1.09-.04-.86-.09-1.72-.13-2.57Z"/><path d="m56.34,130.82c-1.18-7.8,1.32-19.12,5.74-25.94,3.13,6.72.57,18.26-5.74,25.94Z"/></svg>